<?xml version="1.0" encoding="utf-8"?>
<!-- Generator: Adobe Illustrator 23.0.1, SVG Export Plug-In . SVG Version: 6.00 Build 0)  -->
<svg version="1.1" xmlns="http://www.w3.org/2000/svg" xmlns:xlink="http://www.w3.org/1999/xlink" x="0px" y="0px"
	 viewBox="0 0 400 400" style="enable-background:new 0 0 400 400;" xml:space="preserve">
<style type="text/css">
	.st0{fill-rule:evenodd;clip-rule:evenodd;fill:#FFFFFF;}
	.st1{fill:#FFFFFF;}
</style>
<g id="Dark_Blue">
</g>
<g id="Logo__x2014__FIXED">
	<g>
		<path class="st0" d="M200,5.6C89.9,5.6,0.7,94.8,0.7,204.9C0.7,293,57.8,367.7,137,394c10,1.8,13.6-4.3,13.6-9.6
			c0-4.8-0.2-20.5-0.3-37.1c-55.4,12.1-67.1-23.5-67.1-23.5c-9.1-23-22.1-29.2-22.1-29.2c-18.1-12.4,1.4-12.1,1.4-12.1
			c20,1.4,30.6,20.5,30.6,20.5c17.8,30.5,46.6,21.7,58,16.6c1.8-12.9,7-21.7,12.7-26.7c-44.3-5-90.8-22.1-90.8-98.5
			c0-21.8,7.8-39.5,20.5-53.5c-2.1-5-8.9-25.3,1.9-52.7c0,0,16.7-5.4,54.8,20.4c15.9-4.4,32.9-6.6,49.9-6.7
			c16.9,0.1,34,2.3,49.9,6.7c38-25.8,54.8-20.4,54.8-20.4c10.8,27.5,4,47.7,2,52.7c12.8,14,20.5,31.7,20.5,53.5
			c0,76.5-46.6,93.4-91,98.3c7.1,6.2,13.5,18.3,13.5,36.9c0,26.7-0.2,48.1-0.2,54.7c0,5.3,3.6,11.5,13.7,9.6
			c79.1-26.4,136.2-101.1,136.2-189.1C399.3,94.8,310.1,5.6,200,5.6z"/>
		<path class="st1" d="M76.2,291.8c-0.4,1-2,1.3-3.4,0.6c-1.4-0.7-2.3-2-1.8-3c0.4-1,2-1.3,3.4-0.6
			C75.9,289.4,76.7,290.8,76.2,291.8L76.2,291.8z M73.7,290"/>
		<path class="st1" d="M84.3,300.8c-1,0.9-2.8,0.5-4.1-0.9c-1.3-1.4-1.5-3.2-0.6-4.1c1-0.9,2.8-0.5,4.1,0.9
			C85,298,85.3,299.9,84.3,300.8L84.3,300.8z M82.4,298.7"/>
		<path class="st1" d="M92.1,312.3c-1.2,0.9-3.2,0.1-4.5-1.7c-1.2-1.8-1.2-3.9,0-4.8c1.2-0.9,3.2-0.1,4.5,1.7
			C93.4,309.3,93.4,311.4,92.1,312.3L92.1,312.3z M92.1,312.3"/>
		<path class="st1" d="M102.9,323.3c-1.1,1.2-3.4,0.9-5.1-0.8c-1.7-1.6-2.2-3.9-1.1-5.1c1.1-1.2,3.4-0.9,5.2,0.8
			C103.5,319.9,104,322.2,102.9,323.3L102.9,323.3z M102.9,323.3"/>
		<path class="st1" d="M117.7,329.8c-0.5,1.6-2.7,2.3-5,1.6c-2.3-0.7-3.7-2.5-3.3-4.1c0.5-1.6,2.7-2.3,5-1.6
			C116.7,326.4,118.2,328.2,117.7,329.8L117.7,329.8z M117.7,329.8"/>
		<path class="st1" d="M134,331c0.1,1.6-1.9,3-4.2,3c-2.4,0.1-4.3-1.3-4.3-2.9c0-1.7,1.9-3,4.3-3C132.1,328,134,329.3,134,331
			L134,331z M134,331"/>
		<path class="st1" d="M149.2,328.4c0.3,1.6-1.4,3.2-3.7,3.7c-2.3,0.4-4.5-0.6-4.8-2.2c-0.3-1.6,1.4-3.3,3.7-3.7
			C146.8,325.8,148.9,326.8,149.2,328.4L149.2,328.4z M149.2,328.4"/>
	</g>
</g>
<g id="Annotations">
</g>
</svg>
