<?xml version="1.0" encoding="UTF-8"?>
<svg width="40px" height="30px" viewBox="0 0 40 30" version="1.1" xmlns="http://www.w3.org/2000/svg" xmlns:xlink="http://www.w3.org/1999/xlink">
    <!-- Generator: Sketch 48.2 (47327) - http://www.bohemiancoding.com/sketch -->
    <title>Shape Copy 48</title>
    <desc>Created with Sketch.</desc>
    <defs></defs>
    <g id="Chart" stroke="none" stroke-width="1" fill="none" fill-rule="evenodd" transform="translate(-342.000000, -651.000000)" opacity="0.800000012">
        <path d="M342.650457,665.380526 C341.750545,666.331096 341.80054,668.232235 342.700452,669.15779 L353.674374,680.289462 C354.599284,681.240032 356.449102,681.265047 357.399009,680.364507 L359.148837,678.688502 L362.923467,675.061328 L381.271665,657.550833 C382.221572,656.650294 382.24657,654.799184 381.32166,653.873629 L379.196869,651.697325 C378.27196,650.77177 376.422141,650.77177 375.497232,651.67231 L357.548994,669.60806 C356.624085,670.533615 354.774267,670.5086 353.874355,669.583045 L347.899941,663.554432 C347.00003,662.603862 345.200206,662.628877 344.300295,663.604462 L342.650457,665.380526 L342.650457,665.380526 Z" id="Shape-Copy-48" fill="#742BFF"></path>
    </g>
</svg>