<?xml version="1.0" encoding="utf-8"?>
<!-- Generator: Adobe Illustrator 23.0.1, SVG Export Plug-In . SVG Version: 6.00 Build 0)  -->
<svg version="1.1" xmlns="http://www.w3.org/2000/svg" xmlns:xlink="http://www.w3.org/1999/xlink" x="0px" y="0px"
	 viewBox="0 0 400 400" style="enable-background:new 0 0 400 400;" xml:space="preserve">
<style type="text/css">
	.st0{fill:#FFFFFF;}
</style>
<g id="Dark_Blue">
</g>
<g id="Logo__x2014__FIXED">
	<path class="st0" d="M200,0C89.5,0,0,89.5,0,200s89.5,200,200,200s200-89.5,200-200S310.5,0,200,0z M300.4,162.1
		c0.1,2.1,0.1,4.1,0.1,6.2c0,63.7-48.5,137.2-137.2,137.2c-27.2,0-52.6-8-73.9-21.7c3.8,0.4,7.6,0.7,11.5,0.7
		c22.6,0,43.4-7.7,59.9-20.6c-21.1-0.4-38.9-14.3-45-33.5c2.9,0.6,6,0.9,9.1,0.9c4.4,0,8.7-0.6,12.7-1.7
		c-22.1-4.4-38.7-23.9-38.7-47.3c0-0.2,0-0.4,0-0.6c6.5,3.6,13.9,5.8,21.8,6c-12.9-8.6-21.5-23.4-21.5-40.1c0-8.8,2.4-17.1,6.5-24.2
		c23.8,29.2,59.3,48.4,99.4,50.4c-0.8-3.5-1.3-7.2-1.3-11c0-26.6,21.6-48.2,48.2-48.2c13.9,0,26.4,5.9,35.2,15.2
		c11-2.2,21.3-6.2,30.6-11.7c-3.6,11.3-11.2,20.7-21.2,26.7c9.8-1.2,19-3.8,27.7-7.6C318,146.8,309.9,155.3,300.4,162.1z"/>
</g>
<g id="Annotations">
</g>
</svg>
