<?xml version="1.0" encoding="utf-8"?>
<!-- Generator: Adobe Illustrator 24.1.0, SVG Export Plug-In . SVG Version: 6.00 Build 0)  -->
<svg version="1.1" id="Layer_1" xmlns="http://www.w3.org/2000/svg" xmlns:xlink="http://www.w3.org/1999/xlink" x="0px" y="0px"
	 viewBox="0 0 16 16" style="enable-background:new 0 0 16 16;" xml:space="preserve">
<style type="text/css">
	.st0{fill:#5A2AB5;}
	.st1{fill:#FFFFFF;}
</style>
<circle class="st0" cx="8" cy="8" r="8"/>
<path class="st1" d="M3.8,5.4c0-0.4,0.1-0.9,0.3-1.3c0.2-0.4,0.5-0.8,0.8-1c0.4-0.3,0.8-0.5,1.3-0.7S7.3,2.1,8,2.1
	c0.6,0,1.2,0.1,1.7,0.3c0.5,0.2,0.9,0.4,1.3,0.8c0.3,0.3,0.6,0.7,0.8,1.2C11.9,4.8,12,5.3,12,5.8L9.5,6c0-0.5-0.1-0.8-0.4-1.1
	C8.8,4.6,8.5,4.5,8,4.5c-0.4,0-0.8,0.1-1,0.3S6.6,5.3,6.6,5.6S6.7,6.1,7,6.2s0.6,0.3,1.1,0.4C8.5,6.8,9,6.9,9.4,7.1
	c0.5,0.2,1,0.4,1.4,0.6c0.4,0.3,0.8,0.6,1.1,1.1c0.3,0.4,0.4,1,0.4,1.7c0,0.5-0.1,0.9-0.3,1.3c-0.2,0.4-0.5,0.8-0.8,1.1
	c-0.4,0.3-0.8,0.5-1.4,0.7c-0.5,0.2-1.2,0.3-1.8,0.3c-0.7,0-1.3-0.1-1.8-0.3s-1-0.4-1.3-0.8S4.2,12.1,4,11.6c-0.2-0.5-0.3-1-0.3-1.5
	l2.6-0.2c0,1,0.5,1.6,1.7,1.6c0.5,0,0.9-0.1,1.2-0.4c0.3-0.2,0.4-0.5,0.4-0.8c0-0.3-0.1-0.5-0.4-0.7S8.4,9.3,8,9.2
	C7.6,9,7.1,8.9,6.6,8.7c-0.5-0.2-1-0.4-1.4-0.6c-0.4-0.3-0.8-0.6-1.1-1C4,6.7,3.8,6.1,3.8,5.4z"/>
</svg>
