<svg xmlns="http://www.w3.org/2000/svg" width="28" height="28" viewBox="0 0 28 28"><path fill="#959595" d="M16.566 27.707l4.448-4.451 4.449 4.451 2.224-2.226-4.448-4.451 4.448-4.452-2.224-2.226-4.449 4.452-4.448-4.452-2.225 2.226 4.449 4.452-4.449 4.451z" fill-rule="evenodd"/><path d="M.965 9.397c-.548.579-.517 1.735.03 2.298l6.677 6.773c.562.578 1.688.593 2.266.045l1.064-1.02 2.297-2.206L24.46 4.634c.578-.548.593-1.674.03-2.237L23.2 1.073c-.563-.563-1.688-.563-2.25-.015l-10.92 10.911c-.563.564-1.688.548-2.236-.015L4.16 8.287c-.548-.579-1.643-.564-2.19.03L.965 9.397z" fill="#742bff" opacity=".8" fill-rule="evenodd"/></svg>