<?xml version="1.0" encoding="UTF-8" standalone="no"?>
<svg
   xmlns:dc="http://purl.org/dc/elements/1.1/"
   xmlns:cc="http://creativecommons.org/ns#"
   xmlns:rdf="http://www.w3.org/1999/02/22-rdf-syntax-ns#"
   xmlns:svg="http://www.w3.org/2000/svg"
   xmlns="http://www.w3.org/2000/svg"
   xmlns:sodipodi="http://sodipodi.sourceforge.net/DTD/sodipodi-0.dtd"
   xmlns:inkscape="http://www.inkscape.org/namespaces/inkscape"
   width="28px"
   height="28px"
   viewBox="0 0 28 28"
   version="1.1"
   id="svg891"
   sodipodi:docname="partial.svg"
   inkscape:version="0.92.2pre0 (973e216, 2017-07-25)">
  <metadata
     id="metadata895">
    <rdf:RDF>
      <cc:Work
         rdf:about="">
        <dc:format>image/svg+xml</dc:format>
        <dc:type
           rdf:resource="http://purl.org/dc/dcmitype/StillImage" />
        <dc:title>Shape Copy 15</dc:title>
      </cc:Work>
    </rdf:RDF>
  </metadata>
  <sodipodi:namedview
     pagecolor="#ffffff"
     bordercolor="#666666"
     borderopacity="1"
     objecttolerance="10"
     gridtolerance="10"
     guidetolerance="10"
     inkscape:pageopacity="0"
     inkscape:pageshadow="2"
     inkscape:window-width="2158"
     inkscape:window-height="1888"
     id="namedview893"
     showgrid="false"
     inkscape:zoom="30.75"
     inkscape:cx="14"
     inkscape:cy="14"
     inkscape:window-x="0"
     inkscape:window-y="2067"
     inkscape:window-maximized="0"
     inkscape:current-layer="svg891" />
  <!-- Generator: Sketch 48.2 (47327) - http://www.bohemiancoding.com/sketch -->
  <title
     id="title883">Shape Copy 15</title>
  <desc
     id="desc885">Created with Sketch.</desc>
  <defs
     id="defs887" />
  <g
     id="Chart"
     transform="matrix(0.47697461,0,0,0.47697461,-269.9354,-297.58936)"
     style="fill:none;fill-rule:evenodd;stroke:none;stroke-width:1">
    <polygon
       id="Shape-Copy-15"
       points="600.6633,682 609.9899,672.66667 619.3165,682 623.9798,677.33333 614.6532,668 623.9798,658.66667 619.3165,654 609.9899,663.33333 600.6633,654 596,658.66667 605.3266,668 596,677.33333 "
       style="fill:#959595" />
  </g>
  <g
     style="opacity:0.8;fill:none;fill-rule:evenodd;stroke:none;stroke-width:1"
     id="Chart-7"
     transform="matrix(0.60838061,0,0,0.60838061,-207.49708,-395.40715)">
    <path
       style="fill:#742bff"
       inkscape:connector-curvature="0"
       d="m 342.65046,665.38053 c -0.89992,0.95057 -0.84992,2.8517 0.05,3.77726 l 10.97392,11.13167 c 0.92491,0.95057 2.77473,0.97559 3.72464,0.0751 l 1.74983,-1.67601 3.77463,-3.62717 18.34819,-17.5105 c 0.94991,-0.90054 0.97491,-2.75165 0.05,-3.6772 l -2.12479,-2.17631 c -0.92491,-0.92555 -2.77473,-0.92555 -3.69964,-0.025 L 357.549,669.60812 c -0.92491,0.92556 -2.77472,0.90054 -3.67464,-0.025 l -5.97441,-6.02861 c -0.89991,-0.95057 -2.69973,-0.92555 -3.59965,0.05 l -1.64983,1.77607 z"
       id="Shape-Copy-48" />
  </g>
</svg>
