<?xml version="1.0" encoding="utf-8"?>
<!-- Generator: Adobe Illustrator 23.0.1, SVG Export Plug-In . SVG Version: 6.00 Build 0)  -->
<svg version="1.1" id="Layer_1" xmlns="http://www.w3.org/2000/svg" xmlns:xlink="http://www.w3.org/1999/xlink" x="0px" y="0px"
	 viewBox="0 0 532.8 134.4" style="enable-background:new 0 0 532.8 134.4;" xml:space="preserve">
<style type="text/css">
	.st0{fill:#5A2AB5;}
</style>
<g>
	<path class="st0" d="M23.5,44.8c0-2.6,0.6-5,1.7-7.4c1.1-2.3,2.7-4.4,4.8-6.1c2.1-1.8,4.6-3.2,7.6-4.3c3-1.1,6.4-1.6,10.2-1.6
		c3.7,0,7,0.5,9.9,1.6c2.9,1.1,5.4,2.6,7.4,4.5c2,1.9,3.6,4.2,4.7,6.8c1.1,2.6,1.7,5.5,1.7,8.6l-15.1,1.1c0-2.7-0.8-4.9-2.3-6.4
		c-1.5-1.5-3.6-2.3-6.4-2.3c-2.4,0-4.4,0.7-5.9,2c-1.5,1.3-2.2,2.8-2.2,4.5c0,1.7,0.8,2.9,2.5,3.8c1.7,0.9,3.7,1.7,6.2,2.4
		c2.5,0.8,5.2,1.6,8,2.4c2.9,0.9,5.6,2.1,8,3.7c2.5,1.6,4.5,3.7,6.2,6.3c1.7,2.6,2.5,5.9,2.5,10c0,2.7-0.6,5.3-1.7,7.7
		c-1.1,2.4-2.7,4.5-4.9,6.3c-2.2,1.8-4.8,3.2-8,4.3c-3.2,1.1-6.8,1.6-10.8,1.6c-3.9,0-7.4-0.5-10.5-1.6c-3.1-1.1-5.7-2.6-7.8-4.6
		s-3.7-4.3-4.9-7c-1.1-2.7-1.7-5.7-1.7-8.9l15.1-1.1c0,6.1,3.2,9.2,9.7,9.2c3,0,5.3-0.7,6.8-2.1c1.5-1.4,2.3-3,2.3-4.9
		c0-1.7-0.8-3.1-2.5-4c-1.7-0.9-3.7-1.8-6.2-2.6c-2.5-0.8-5.2-1.6-8-2.5c-2.9-0.9-5.6-2.1-8-3.6c-2.5-1.5-4.5-3.6-6.2-6.1
		C24.4,52.1,23.5,48.9,23.5,44.8z"/>
	<path class="st0" d="M75.3,44.3h15.6L101.7,75l10.8-30.7h15.6l-19.9,49.6c-2.5,6.2-5.2,10.7-8.1,13.5c-2.9,2.8-6.7,4.3-11.3,4.3
		c-0.6,0-1.1,0-1.7-0.1c-0.5,0-1.1-0.1-1.6-0.2c-0.6-0.1-1.1-0.2-1.6-0.3V98.8c3,0,5.3-0.6,6.8-1.9c1.5-1.3,2.7-3,3.4-5.1L75.3,44.3
		z"/>
	<path class="st0" d="M158.8,43.8c2.5,0,4.7,0.3,6.5,1c1.8,0.7,3.3,1.4,4.4,2.2c1.3,0.9,2.3,2,3.1,3.2c1.1-1.2,2.5-2.3,4-3.2
		c1.3-0.8,2.8-1.5,4.6-2.2c1.8-0.7,3.8-1,5.9-1c5.4,0,9.7,1.7,12.9,5.2c3.2,3.5,4.9,8.6,4.9,15.3v29.6h-14.6v-28
		c0-2.7-0.7-4.9-2.1-6.4c-1.4-1.5-3-2.3-4.9-2.3c-1.9,0-3.5,0.8-4.9,2.3c-1.4,1.5-2.1,3.6-2.1,6.4v28h-14.6v-28
		c0-2.7-0.7-4.9-2.1-6.4c-1.4-1.5-3-2.3-4.9-2.3c-1.9,0-3.5,0.8-4.9,2.3c-1.4,1.5-2.1,3.6-2.1,6.4v28h-14.6V44.3h10.8l2.2,4.9
		c0.9-1,2-1.9,3.3-2.7c1.1-0.6,2.4-1.3,3.9-1.8C155.3,44.1,157,43.8,158.8,43.8z"/>
	<path class="st0" d="M242.4,94.4c-2.2,0-4.1-0.3-5.8-0.8c-1.7-0.5-3.2-1.2-4.4-1.9c-1.4-0.8-2.7-1.7-3.8-2.7l-2.2,4.9h-10.8V26H230
		v22.1c0.9-0.8,2-1.5,3.3-2.2c1.1-0.6,2.4-1.1,3.9-1.5c1.5-0.4,3.3-0.6,5.1-0.6c3.1,0,6,0.6,8.8,1.9c2.8,1.3,5.3,3,7.4,5.3
		c2.1,2.3,3.8,4.9,5.1,8c1.3,3.1,1.9,6.5,1.9,10.1c0,3.7-0.6,7-1.9,10.1c-1.3,3.1-2.9,5.8-5.1,8c-2.1,2.3-4.6,4-7.4,5.3
		C248.4,93.8,245.5,94.4,242.4,94.4z M251,69.1c0-3.5-1-6.4-3.1-8.6c-2.1-2.2-4.6-3.3-7.7-3.3c-3,0-5.6,1.1-7.7,3.3
		s-3.1,5.1-3.1,8.6c0,3.5,1,6.4,3.1,8.6s4.6,3.3,7.7,3.3c3,0,5.6-1.1,7.7-3.3C250,75.5,251,72.6,251,69.1z"/>
	<path class="st0" d="M274.2,30.8c0-2.2,0.8-4,2.4-5.7c1.6-1.6,3.5-2.4,5.7-2.4c2.2,0,4,0.8,5.7,2.4c1.6,1.6,2.4,3.5,2.4,5.7
		s-0.8,4-2.4,5.7c-1.6,1.6-3.5,2.4-5.7,2.4c-2.2,0-4-0.8-5.7-2.4C275,34.9,274.2,33,274.2,30.8z M289.3,93.9h-14.6V44.3h14.6V93.9z"
		/>
	<path class="st0" d="M302.2,26h46.9v15.1h-31.3v14h25.3v15.1h-25.3v23.7h-15.6V26z"/>
	<path class="st0" d="M371.8,93.9h-14.6V26h14.6V93.9z"/>
	<path class="st0" d="M380.4,69.1c0-3.7,0.7-7.1,2-10.2c1.3-3.1,3.1-5.9,5.4-8.2c2.3-2.3,5-4.2,8-5.5c3.1-1.3,6.3-2,9.9-2
		c3.5,0,6.8,0.7,9.9,2c3.1,1.3,5.7,3.2,8,5.5c2.3,2.3,4.1,5.1,5.4,8.2c1.3,3.1,2,6.5,2,10.2c0,3.7-0.7,7.1-2,10.2
		c-1.3,3.1-3.1,5.9-5.4,8.2c-2.3,2.3-5,4.2-8,5.5c-3.1,1.3-6.3,2-9.9,2c-3.5,0-6.8-0.7-9.9-2c-3.1-1.3-5.7-3.2-8-5.5
		c-2.3-2.3-4.1-5.1-5.4-8.2C381.1,76.2,380.4,72.8,380.4,69.1z M416.5,69.1c0-3.8-1-6.8-3.1-9.1c-2.1-2.2-4.6-3.3-7.7-3.3
		c-3,0-5.6,1.1-7.7,3.3c-2.1,2.2-3.1,5.2-3.1,9.1c0,3.8,1,6.8,3.1,9.1c2.1,2.2,4.6,3.3,7.7,3.3c3,0,5.6-1.1,7.7-3.3
		C415.5,75.9,416.5,72.9,416.5,69.1z"/>
	<path class="st0" d="M472,66.4l-8.6,27.5H451l-16.7-49.6h15.1l8.6,29.1l9.2-29.1h9.7l9.2,29.1l8.6-29.1h15.1l-16.7,49.6h-12.4
		L472,66.4z"/>
</g>
</svg>
